<svg 
style="
  filter: `
    drop-shadow(0 0 6px #ff0000)
    drop-shadow(0 0 12px #ff0000)
    drop-shadow(0 0 20px #ff0000)
  `
"

fill="#fff" height="200px" width="200px" version="1.1" id="Layer_1" xmlns="http://www.w3.org/2000/svg" xmlns:xlink="http://www.w3.org/1999/xlink" viewBox="0 0 512 512" xml:space="preserve" stroke="#fff"><g id="SVGRepo_bgCarrier" stroke-width="0"></g><g id="SVGRepo_tracerCarrier" stroke-linecap="round" stroke-linejoin="round"></g><g id="SVGRepo_iconCarrier"> <g> <g> <path d="M256,218.074c-26.139,0-47.407,21.268-47.407,47.407c0,26.139,21.268,47.407,47.407,47.407 c26.139,0,47.407-21.268,47.407-47.407C303.407,239.342,282.139,218.074,256,218.074z M256,293.925 c-15.685,0-28.444-12.759-28.444-28.444c0-15.685,12.759-28.444,28.444-28.444s28.444,12.759,28.444,28.444 C284.444,281.166,271.685,293.925,256,293.925z"></path> </g> </g> <g> <g> <path d="M511.568,471.243l-47.407-151.703c-0.695-2.218-1.631-4.106-3.621-5.301l-89.663-54.129v-58.375L482.752,14.362 c2.023-3.375,1.479-7.648-0.951-10.741c-2.445-3.097-6.669-4.357-10.419-3.19L319.61,47.839c-2,0.625-3.771,1.836-4.974,3.554 l-63.571,90.705h-58.888L14.233,39.143c-3.379-1.963-7.616-1.623-10.671,0.827c-3.051,2.444-4.296,6.521-3.13,10.252 l47.407,151.71c0.694,2.217,2.73,4.111,4.721,5.306l90.762,54.133v77.161L40,497.364c-2.116,3.268-2.294,7.5-0.03,10.667 c1.806,2.528,4.561,3.968,7.575,3.968c0.765,0,1.469-0.092,2.233-0.282l151.668-37.926c2.44-0.611,4.52-2.229,5.811-4.382 l54.113-90.274h58.453l177.943,103.08c3.375,1.957,7.616,1.678,10.671-0.766C511.489,479.004,512.734,474.975,511.568,471.243z M327.12,361.511c-1.444-0.838-3.083-1.34-4.75-1.34H256c-3.329,0-6.417,1.808-8.13,4.663L193,456.314l-124.573,31.16 l91.785-140.997c0.995-1.537,2.073-3.316,2.073-5.145V256c0-3.329-2.295-6.417-5.151-8.129l-91.997-55.032L25.925,67.806 l159.023,92.04c1.444,0.838,3.015,1.215,4.682,1.215H256c3.093,0,5.995-1.447,7.769-3.984l64.513-92.136l124.846-38.997 L352.716,194.223c-0.884,1.477-0.802,3.17-0.802,4.888v66.37c0,3.329,1.196,6.417,4.052,8.13l91.446,55.032l38.937,125 L327.12,361.511z"></path> </g> </g> </g></svg>