<!DOCTYPE svg PUBLIC "-//W3C//DTD SVG 1.1//EN" "http://www.w3.org/Graphics/SVG/1.1/DTD/svg11.dtd">
<!-- Uploaded to: SVG Repo, www.svgrepo.com, Transformed by: SVG Repo Mixer Tools -->
<svg height="800px" width="800px" version="1.1" id="Layer_1" xmlns="http://www.w3.org/2000/svg" xmlns:xlink="http://www.w3.org/1999/xlink" viewBox="0 0 512.001 512.001" xml:space="preserve" fill="#000000">
<g id="SVGRepo_bgCarrier" stroke-width="0"/>
<g id="SVGRepo_tracerCarrier" stroke-linecap="round" stroke-linejoin="round"/>
<g id="SVGRepo_iconCarrier"> <circle style="fill:#FE8808;" cx="214.503" cy="247.24" r="206.439"/> <g style="opacity:0.2;"> <circle cx="78.851" cy="196.386" r="8.064"/> <circle cx="112.17" cy="238.413" r="8.064"/> <circle cx="78.851" cy="287.203" r="8.064"/> <circle cx="160.337" cy="196.386" r="8.064"/> <circle cx="128.297" cy="155.648" r="8.064"/> </g> <circle style="opacity:0.3;fill:#FFFFFF;enable-background:new ;" cx="230.264" cy="96.677" r="21.861"/> <path style="fill:#006539;" d="M246.433,235.386c45.36,0,83.914,32.547,97.959,46.051c3.282,3.157,3.282,8.374,0,11.53 c-14.045,13.504-52.598,46.051-97.959,46.051s-83.914-32.547-97.959-46.051c-3.282-3.157-3.282-8.374,0-11.53 C162.519,267.932,201.073,235.386,246.433,235.386z"/> <path style="opacity:0.1;enable-background:new ;" d="M344.392,281.437c-11.704-11.254-40.434-35.715-75.934-43.562 c3.843,32.951,16.986,61.623,24.162,75.281c2.55,4.855,8.586,6.604,13.337,3.865c9.357-5.394,25.122-15.455,40.895-29.847 C346.845,285.09,346.026,283.008,344.392,281.437z"/> <path style="opacity:0.15;enable-background:new ;" d="M268.696,295.266h-44.525c-4.454,0-8.064-3.61-8.064-8.064 c0-4.453,3.609-8.064,8.064-8.064h44.525c4.454,0,8.064,3.61,8.064,8.064C276.76,291.656,273.151,295.266,268.696,295.266z"/> <path style="fill:#00A155;" d="M402.851,197.621c-15.205,52.473-65.777,86.16-86.106,97.88c-4.751,2.739-10.787,0.99-13.338-3.865 c-10.914-20.773-35.64-76.281-20.435-128.753s65.777-86.16,86.106-97.88c4.751-2.739,10.787-0.99,13.337,3.865 C393.33,89.641,418.056,145.148,402.851,197.621z"/> <path style="opacity:0.15;enable-background:new ;" d="M335.453,214.071c-0.743,0-1.5-0.103-2.249-0.32 c-4.277-1.24-6.739-5.712-5.5-9.989l14.925-51.506c1.239-4.278,5.713-6.743,9.99-5.5c4.277,1.24,6.74,5.712,5.5,9.989 l-14.925,51.506C342.172,211.777,338.951,214.071,335.453,214.071z"/> <path style="opacity:0.1;enable-background:new ;" d="M407.236,173.183c0.677-8.609,0.498-17.139-0.287-25.43 c-6.14-2.321-13.434-1.072-18.475,3.971L130.338,409.858C67.633,374.431,25.295,307.17,25.295,230.012 c0-52.621,19.699-100.634,52.111-137.093C34.87,130.733,8.064,185.852,8.064,247.243c0,114.011,92.424,206.435,206.435,206.435 s206.435-92.424,206.435-206.435C420.933,221.139,416.075,196.173,407.236,173.183z"/> <path style="fill:#FE8808;" d="M173.717,405.185c-7.483,7.483-6.647,19.938,1.887,26.198 c80.764,59.244,194.862,52.367,267.876-20.648c73.014-73.014,79.892-187.112,20.648-267.876c-6.26-8.533-18.714-9.37-26.198-1.887 L173.717,405.185z"/> <g style="opacity:0.3;"> <path style="fill:#FFFFFF;" d="M186.056,400.255c27.375,22.573,59.987,35.585,93.4,39.022c2.814,0.289,5.26-1.928,5.26-4.756 V303.063c0-3.276-3.961-4.917-6.278-2.6l-92.722,92.722C183.723,395.178,183.881,398.462,186.056,400.255z"/> <path style="fill:#FFFFFF;" d="M314.683,439.36c33.524-3.278,66.282-16.182,93.797-38.707c2.187-1.79,2.35-5.083,0.353-7.081 l-93.109-93.109c-2.317-2.317-6.278-0.676-6.278,2.6v131.538C309.444,437.421,311.876,439.634,314.683,439.36z"/> <path style="fill:#FFFFFF;" d="M433.398,375.734c22.525-27.516,35.429-60.273,38.708-93.798c0.274-2.806-1.94-5.237-4.759-5.237 h-131.54c-3.276,0-4.917,3.961-2.6,6.278l93.11,93.11C428.316,378.084,431.608,377.921,433.398,375.734z"/> <path style="fill:#FFFFFF;" d="M335.808,251.971h131.458c2.829,0,5.046-2.446,4.756-5.26c-3.437-33.414-16.45-66.025-39.022-93.4 c-1.793-2.175-5.077-2.333-7.07-0.34l-92.722,92.722C330.892,248.01,332.532,251.971,335.808,251.971z"/> </g> <path d="M470.628,138.088c-4.348-5.927-11.063-9.649-18.424-10.212c-7.435-0.57-14.711,2.128-19.977,7.394l-16.876,16.876 c-2.505-38.549-18.283-72.723-25.799-87.028c-2.263-4.307-6.076-7.424-10.736-8.774c-4.662-1.35-9.549-0.756-13.767,1.674 c-6.124,3.531-14.679,8.859-24.162,15.926c-36.864-26.969-80.423-41.199-126.39-41.199C96.224,32.744,0,128.968,0,247.243 c0,57.239,22.275,111.066,62.721,151.567c40.045,40.099,93.18,62.391,149.78,62.906c26.715,11.514,55.669,17.54,85.055,17.54 c5.145,0,10.311-0.185,15.472-0.557c51.35-3.7,99.704-25.812,136.154-62.262c36.45-36.45,58.562-84.803,62.262-136.154 C515.106,229.459,500.611,178.961,470.628,138.088z M373.104,71.989c0.488-0.28,0.933-0.24,1.225-0.156 c0.289,0.084,0.688,0.288,0.949,0.785c7.965,15.158,25.941,54.291,24.168,95.433l-98.651,98.65 c-10.102-25.163-20.834-64.456-10.078-101.575C295.491,148.652,313.075,106.597,373.104,71.989z M288.464,279.033l-51.4,51.4 c-38.333-4.021-70.56-31.328-82.951-43.231c41.092-39.486,78.248-43.752,92.32-43.752c10.061,0,20.535,1.798,31.186,5.322 C280.952,260.479,284.919,270.851,288.464,279.033z M74.131,387.413c-37.404-37.455-58.004-87.235-58.004-140.17 c0-109.383,88.989-198.372,198.371-198.372c41.034,0,79.991,12.261,113.307,35.54c-20.991,18.041-43.128,43.619-52.578,76.227 c-6.115,21.106-6.768,44.658-1.937,70.001c0.008,0.039,0.016,0.077,0.024,0.116c-9.098-2.265-18.097-3.434-26.879-3.434 c-48.119,0-88.444,33.779-103.546,48.302c-3.185,3.061-4.938,7.172-4.938,11.578c0,4.405,1.754,8.517,4.937,11.577 c12.249,11.777,42.452,37.467,80.14,45.691l-55.012,55.012c-5.266,5.267-7.96,12.549-7.394,19.978 c0.562,7.359,4.286,14.075,10.213,18.423c1.932,1.417,3.89,2.791,5.863,4.138C138.066,434.608,102.537,415.858,74.131,387.413z M495.358,279.121c-3.422,47.485-23.871,92.2-57.582,125.91c-33.709,33.709-78.423,54.158-125.908,57.581 c-47.01,3.387-93.708-10.013-131.496-37.732c-2.161-1.586-3.464-3.946-3.671-6.649c-0.209-2.733,0.782-5.41,2.717-7.346 l264.213-264.213c1.935-1.935,4.598-2.927,7.344-2.717c2.703,0.206,5.064,1.51,6.649,3.671 C485.345,185.415,498.746,232.115,495.358,279.121z"/> </g>
</svg>