<!DOCTYPE svg PUBLIC "-//W3C//DTD SVG 1.1//EN" "http://www.w3.org/Graphics/SVG/1.1/DTD/svg11.dtd">
<!-- Uploaded to: SVG Repo, www.svgrepo.com, Transformed by: SVG Repo Mixer Tools -->
<svg width="800px" height="800px" viewBox="0 0 48 48" id="b" xmlns="http://www.w3.org/2000/svg" fill="#ffffff" stroke="#ffffff" stroke-width="1.7280000000000002">
<g id="SVGRepo_bgCarrier" stroke-width="0"/>
<g id="SVGRepo_tracerCarrier" stroke-linecap="round" stroke-linejoin="round"/>
<g id="SVGRepo_iconCarrier">
<defs>
<style>.c{fill:none;stroke:#ffffff;stroke-linecap:round;stroke-linejoin:round;}</style>
</defs>
<path class="c" d="m41.4002,26.829c1.0929-1.0929,1.3734-2.752.6987-4.1425-1.356-2.7944-3.5771-6.4401-6.936-9.8573-3.5628-3.6245-7.1565-5.7208-9.9318-7.004-1.3664-.6318-2.9803-.3211-4.0448.7434l-12.0146,12.0146c-1.4136,1.4136-1.4136,3.7055,0,5.1191l5.0474,5.0474-7.5446,7.5446c-1.3601,1.3601-1.5606,3.5977-.2733,5.027,1.3728,1.5242,3.7228,1.5701,5.1546.1383l7.6866-7.6866,5.0474,5.0474c1.4136,1.4136,3.7055,1.4136,5.1191,0l11.9914-11.9914Z"/>
<line class="c" x1="13.4895" y1="14.2652" x2="33.7268" y2="34.5025"/>
</g>
</svg>